Coordinates
version=1
nRows=5
nColumns=40
inDegrees=yes

Units are S.I. units (second, meters, Newtons, ...)
Angles are in degrees.

endheader
time	pelvis_tilt	pelvis_list	pelvis_rotation	pelvis_tx	pelvis_ty	pelvis_tz	hip_flexion_r	hip_adduction_r	hip_rotation_r	knee_angle_r	knee_angle_r_beta	ankle_angle_r	subtalar_angle_r	mtp_angle_r	hip_flexion_l	hip_adduction_l	hip_rotation_l	knee_angle_l	knee_angle_l_beta	ankle_angle_l	subtalar_angle_l	mtp_angle_l	lumbar_extension	lumbar_bending	lumbar_rotation	arm_flex_r	arm_add_r	arm_rot_r	elbow_flex_r	pro_sup_r	wrist_flex_r	wrist_dev_r	arm_flex_l	arm_add_l	arm_rot_l	elbow_flex_l	pro_sup_l	wrist_flex_l	wrist_dev_l
     20.93250000	     -4.35128593	     -5.16113786	      9.10395401	      0.96773908	      0.92093233	      0.49364797	     -0.74828593	      2.32145852	    -12.41586395	     14.54420200	     14.54420200	     18.61350318	      4.00298179	     -1.79398232	     26.31183400	     -9.15801631	      3.02771943	     24.26111859	     24.26111859	      5.97629036	     -8.11836309	      1.06094625	     -7.05213872	      4.22198863	      4.90991888	     54.85491941	    -17.17216868	     -3.65146817	     94.21023447	     43.43370582	      0.00000000	      0.00000000	    -12.66761077	    -13.55592001	     22.04130782	     30.76644367	     41.88341543	      0.00000000	      0.00000000
     20.95371429	     -4.52170997	     -5.14085332	      8.45289251	      0.96873720	      0.92186441	      0.48872802	     -0.79407974	      1.76321909	    -12.49035596	     14.80494985	     14.80494985	     18.22238404	      4.94447528	     -2.07920054	     26.01602278	     -8.99130434	      2.63592164	     24.49826895	     24.49826895	      6.57029765	     -8.53946848	      1.79662721	     -6.97989158	      4.27223572	      4.75803921	     54.56705349	    -16.60194719	     -3.56815022	     92.76607717	     43.53291449	      0.00000000	      0.00000000	    -12.43076874	    -13.85070913	     21.76060943	     30.97049423	     42.04024988	      0.00000000	      0.00000000
     20.97492857	     -4.67082629	     -5.17890141	      7.79637000	      0.96973266	      0.92288372	      0.48390914	     -0.84847856	      1.33372759	    -12.20812581	     15.02052166	     15.02052166	     17.79665165	      5.36763720	     -2.11131621	     25.63095016	     -8.92197909	      2.13357543	     24.56949540	     24.56949540	      6.92797221	     -8.84377225	      1.88644967	     -6.96293972	      4.38179940	      4.75155793	     53.74349350	    -16.42436896	     -3.48751407	     92.06959211	     43.56407662	      0.00000000	      0.00000000	    -12.06420581	    -14.16247976	     21.60751178	     31.12196380	     42.09503604	      0.00000000	      0.00000000
     20.99614286	     -4.78894093	     -5.31049833	      7.10522478	      0.97060969	      0.92394010	      0.47923168	     -0.87904256	      1.01118261	    -11.87997569	     15.27623388	     15.27623388	     17.34266956	      5.77295382	     -2.10267499	     25.21928881	     -8.96477760	      1.64280841	     24.60992401	     24.60992401	      7.24008142	     -9.16755233	      1.89999077	     -7.01123449	      4.60495358	      4.72417254	     52.81981560	    -16.19132412	     -3.37587763	     91.52050112	     43.57982253	      0.00000000	      0.00000000	    -11.63774847	    -14.44941582	     21.50351109	     31.25211723	     42.12500033	      0.00000000	      0.00000000
     21.01735714	     -4.96969524	     -5.21440611	      6.43591505	      0.97142453	      0.92494821	      0.47434201	     -0.72894970	      0.27770073	    -12.18028745	     15.81992786	     15.81992786	     16.87589811	      7.03261953	     -2.86789584	     24.74306607	     -8.74028664	      1.03669739	     24.49936872	     24.49936872	      7.77361035	     -9.29017638	      2.46271083	     -6.84455870	      4.55035429	      4.61740323	     51.90601771	    -15.80044577	     -3.86233553	     88.74888333	     43.73550581	      0.00000000	      0.00000000	    -11.30589000	    -14.73202614	     21.14999353	     31.67763931	     42.29039473	      0.00000000	      0.00000000
